Sharon Shannon For One Night Only [RTE Ireland] HQ PDTV x264 AC3 DeViL303

For One Night Only celebrates the musical genius of Sharon Shannon

ΓÇ£Sharon Shannon has a tune in her head for every beat of her heartΓÇ¥
Mike Scott, The Waterboys.

For One Night Only celebrates the musical genius of Sharon Shannon. Throughout this special Christmas edition, Sharon speaks to Gay Byrne about growing up on the farm in Co. Clare, touring with the Waterboys in her early career and her love of Galway. She also speaks very poignantly about the death of her long term partner, Leo Healy.

Throughout the show Sharon is joined by some of the biggest and best known names in Irish music. Mundy performs Galway Girl, Imelda May rocks it out on DonΓÇÖt tell the Devil and the inimitable Dessie OΓÇÖHalloran performs the finale belting out CourtinΓÇÖ in the Kitchen.

File info:
Complete name                            : Sharon Shannon For One Night Only [RTE Ireland] HQ PDTV x264 AC3 DeViL303Sharon Shannon For One Night Only [RTE Ireland] HQ PDTV x264 AC3 DeViL303.mkv
Format                                   : Matroska
Format version                           : Version 1
File size                                : 569 MiB
Duration                                 : 53mn 6s
Overall bit rate mode                    : Variable
Overall bit rate                         : 1 497 Kbps
Encoded date                             : UTC 2013-02-21 18:30:46
Writing application                      : mkvmerge v2.5.3 ('Boogie') built on Mar  7 2009 15:00:41
Writing library                          : libebml v0.7.7 + libmatroska v0.8.1

Video
ID                                       : 1
Format                                   : AVC
Format/Info                              : Advanced Video Codec
Format profile                           : High@L3.0
Format settings, CABAC                   : Yes
Format settings, ReFrames                : 3 frames
Codec ID                                 : V_MPEG4/ISO/AVC
Duration                                 : 53mn 6s
Bit rate mode                            : Variable
Bit rate                                 : 1 303 Kbps
Maximum bit rate                         : 12.0 Mbps
Width                                    : 720 pixels
Height                                   : 576 pixels
Display aspect ratio                     : 16:9
Original display aspect ratio            : 5:4
Frame rate mode                          : Constant
Frame rate                               : 25.000 fps
Standard                                 : PAL
Color space                              : YUV
Chroma subsampling                       : 4:2:0
Bit depth                                : 8 bits
Scan type                                : Progressive
Bits/(Pixel*Frame)                       : 0.126
Stream size                              : 484 MiB (85%)
Writing library                          : x264 core 93 r1542M 5b86182
Encoding settings                        : cabac=1 / ref=3 / deblock=1:-1:-1 / 
Default                                  : Yes
Forced                                   : No

Audio
ID                                       : 2
Format                                   : AC-3
Format/Info                              : Audio Coding 3
Mode extension                           : CM (complete main)
Format settings, Endianness              : Big
Codec ID                                 : A_AC3
Duration                                 : 53mn 6s
Bit rate mode                            : Constant
Bit rate                                 : 192 Kbps
Channel(s)                               : 2 channels
Channel positions                        : Front: L R
Sampling rate                            : 48.0 KHz
Bit depth                                : 16 bits
Compression mode                         : Lossy
Stream size                              : 72.9 MiB (13%)
Default                                  : Yes
Forced                                   : No